<svg width="512" height="512" viewBox="0 0 24 24" fill="none" stroke="#7CFFA4" stroke-width="1.6" stroke-linecap="round" stroke-linejoin="round">
  <circle cx="12" cy="12" r="3"></circle>
  <path d="M19.4 15a1.65 1.65 0 0 0 .33 1.82l.06.06a2 2 0 1 1-2.83 2.83l-.06-.06a1.65 1.65 0 0 0-1.82-.33 1.65 1.65 0 0 0-1 1.51V21a2 2 0 1 1-4 0v-.09A1.65 1.65 0 0 0 8.1 19.4a1.65 1.65 0 0 0-1.82.33l-.06.06a2 2 0 1 1-2.83-2.83l.06-.06A1.65 1.65 0 0 0 3 15.1a1.65 1.65 0 0 0-1.51-1H1a2 2 0 1 1 0-4h.09A1.65 1.65 0 0 0 3 8.1a1.65 1.65 0 0 0-.33-1.82l-.06-.06a2 2 0 1 1 2.83-2.83l.06.06A1.65 1.65 0 0 0 8.1 3a1.65 1.65 0 0 0 1-1.51V1a2 2 0 1 1 4 0v.09A1.65 1.65 0 0 0 15 3a1.65 1.65 0 0 0 1.82-.33l.06-.06a2 2 0 1 1 2.83 2.83l-.06.06A1.65 1.65 0 0 0 21 9c0 .29.08.57.23.82A1.65 1.65 0 0 0 22.91 11H23a2 2 0 1 1 0 4h-.09A1.65 1.65 0 0 0 21 15z"></path>
</svg>
